<svg width="32" height="32" viewBox="0 0 32 32" fill="none" xmlns="http://www.w3.org/2000/svg">
<rect width="32" height="32" rx="16" fill="#242736"/>
<g clip-path="url(#clip0_960_121)">
<path d="M23.3987 18.3202C22.6677 18.3468 22.0923 18.9602 22.0923 19.6868V20.3802C22.0923 20.7402 21.8486 21.0602 21.4898 21.1535C21.0363 21.2735 20.5557 21.3402 20.0615 21.3402C19.5606 21.3402 19.0732 21.2735 18.6061 21.1468C18.0984 22.0202 17.3267 22.7268 16.3926 23.1468C17.496 23.6935 18.7415 24.0068 20.0615 24.0068C21.4221 24.0068 22.715 23.6802 23.8455 23.1002C24.4277 22.8002 24.8 22.2068 24.8 21.5602V19.6602C24.8 18.9002 24.1637 18.2935 23.3987 18.3202Z" fill="#F5F5F5"/>
<path d="M23.8593 8.92667C22.722 8.33333 21.4359 8 20.0617 8C18.5793 8 17.1983 8.38667 16.0002 9.07333C14.802 8.38667 13.4211 8 11.9387 8C10.5645 8 9.27835 8.33333 8.14112 8.92667C7.56573 9.22667 7.2002 9.81333 7.2002 10.46V13.4133V13.48C7.2002 14.2 7.76881 14.82 8.50666 14.8467C9.27158 14.8733 9.90789 14.2667 9.90789 13.52V11.6267C9.90789 11.2667 10.1516 10.9467 10.5103 10.8533C10.9639 10.7333 11.4445 10.6667 11.9387 10.6667C12.575 10.6667 13.1774 10.7733 13.746 10.9733C12.927 11.9667 12.3516 13.1533 12.0876 14.4533C11.986 14.9533 11.9387 15.4667 11.9387 16C11.9387 17.9067 12.6156 19.6533 13.746 21.0267C13.1842 21.2267 12.575 21.3333 11.9387 21.3333C11.5596 21.3333 10.991 21.2267 10.5442 21.1333C10.1719 21.0533 9.90789 20.7267 9.90789 20.3533V19.6867C9.90789 18.9667 9.33927 18.3467 8.60143 18.32C7.8365 18.2933 7.2002 18.9 7.2002 19.6533V21.5533C7.2002 22.2 7.56573 22.7933 8.15466 23.0933C9.28512 23.6733 10.578 24 11.9387 24C12.8525 24 13.7257 23.8533 14.5448 23.58C15.0525 23.4133 15.5399 23.1933 16.0002 22.9333C16.8667 22.44 17.6316 21.7933 18.2543 21.0333C18.5996 20.6133 18.9042 20.1533 19.1614 19.6667C19.3713 19.2733 19.5405 18.86 19.6827 18.4267C19.9331 17.66 20.0617 16.8467 20.0617 16C20.0617 14.26 19.4931 12.6467 18.5387 11.3333C17.6248 11.54 16.8396 12.12 16.3522 12.9067C16.7651 13.48 17.0697 14.1333 17.2254 14.84C17.3067 15.2133 17.354 15.6 17.354 16C17.354 16.5733 17.2593 17.1267 17.09 17.6467C16.8599 18.3467 16.4876 18.9867 16.0002 19.5267C15.1608 18.5867 14.6463 17.3533 14.6463 16C14.6463 15.28 14.7953 14.5933 15.0525 13.9667C15.2827 13.4133 15.6008 12.9133 16.0002 12.4733C16.6027 11.8 17.3811 11.2733 18.2543 10.9733C18.8162 10.7733 19.4254 10.6667 20.0617 10.6667C20.5559 10.6667 21.0365 10.7333 21.49 10.8533C21.842 10.9467 22.0925 11.2667 22.0925 11.6267V12.3533C22.0925 13.0733 22.6611 13.6933 23.399 13.72C24.1707 13.7467 24.8002 13.14 24.8002 12.3867V10.46C24.8002 9.81333 24.4347 9.22667 23.8593 8.92667Z" fill="#F5F5F5"/>
</g>
<defs>
<clipPath id="clip0_960_121">
<rect width="17.6" height="16" fill="white" transform="translate(7.2002 8)"/>
</clipPath>
</defs>
</svg>
