<svg width="16" height="16" viewBox="0 0 16 16" fill="none" xmlns="http://www.w3.org/2000/svg">
<path d="M7.99954 8.93337L4.73288 12.2C4.61066 12.3223 4.4551 12.3834 4.26621 12.3834C4.07732 12.3834 3.92177 12.3223 3.79954 12.2C3.67732 12.0778 3.61621 11.9223 3.61621 11.7334C3.61621 11.5445 3.67732 11.3889 3.79954 11.2667L7.06621 8.00003L3.79954 4.73337C3.67732 4.61114 3.61621 4.45559 3.61621 4.2667C3.61621 4.07781 3.67732 3.92225 3.79954 3.80003C3.92177 3.67781 4.07732 3.6167 4.26621 3.6167C4.4551 3.6167 4.61066 3.67781 4.73288 3.80003L7.99954 7.0667L11.2662 3.80003C11.3884 3.67781 11.544 3.6167 11.7329 3.6167C11.9218 3.6167 12.0773 3.67781 12.1995 3.80003C12.3218 3.92225 12.3829 4.07781 12.3829 4.2667C12.3829 4.45559 12.3218 4.61114 12.1995 4.73337L8.93288 8.00003L12.1995 11.2667C12.3218 11.3889 12.3829 11.5445 12.3829 11.7334C12.3829 11.9223 12.3218 12.0778 12.1995 12.2C12.0773 12.3223 11.9218 12.3834 11.7329 12.3834C11.544 12.3834 11.3884 12.3223 11.2662 12.2L7.99954 8.93337Z" fill="#5E5E5E"/>
</svg>
